<?xml version="1.0" encoding="utf-8"?>
<!-- Generator: Fusion 360, Shaper Origin Export Add-In, Version 1.7.0  -->
<svg xmlns="http://www.w3.org/2000/svg" xmlns:xlink="http://www.w3.org/1999/xlink" xmlns:shaper="http://www.shapertools.com/namespaces/shaper" shaper:fusionaddin="version:1.7.0" width="0.6cm" height="0.5995398cm" version="1.1" x="0cm" y="0cm" viewBox="0 0 0.6 0.5995398" enable-background="new 0 0 0.6 0.5995398" xml:space="preserve"><path d="M-0.115,0.277083 L-0.075,0.2332381 A0.245,0.245 107.8257059 0,0 0.075,0.2332381 L0.115,0.277083 A0.3,0.3 67.4596895 0,1 -0.115,0.277083z" transform="matrix(1,0,0,-1,0.3,0.3)" stroke="rgb(100,100,100)" stroke-width="0.0010cm" stroke-linecap="round" stroke-linejoin="round" fill="none" /><path d="M-0.2883336,0.0828478 L-0.2291146,0.0867842 A0.245,0.245 159.2542773 0,0 -0.1355911,0.2040589 L-0.1449309,0.2626691 A0.3,0.3 118.888261 0,1 -0.2883336,0.0828478z" transform="matrix(1,0,0,-1,0.3,0.3)" stroke="rgb(100,100,100)" stroke-width="0.0010cm" stroke-linecap="round" stroke-linejoin="round" fill="none" /><path d="M-0.2445461,-0.1737735 L-0.2107012,-0.1250199 A0.245,0.245 210.6828487 0,0 -0.2440794,0.0212192 L-0.2957259,0.0504599 A0.3,0.3 170.3168324 0,1 -0.2445461,-0.1737735z" transform="matrix(1,0,0,-1,0.3,0.3)" stroke="rgb(100,100,100)" stroke-width="0.0010cm" stroke-linecap="round" stroke-linejoin="round" fill="none" /><path d="M-0.0166104,-0.2995398 L-0.0336255,-0.2426815 A0.245,0.245 262.1114202 0,0 -0.1687709,-0.177599 L-0.2238332,-0.1997465 A0.3,0.3 221.7454038 0,1 -0.0166104,-0.2995398z" transform="matrix(1,0,0,-1,0.3,0.3)" stroke="rgb(100,100,100)" stroke-width="0.0010cm" stroke-linecap="round" stroke-linejoin="round" fill="none" /><path d="M0.2238332,-0.1997465 L0.1687709,-0.177599 A0.245,0.245 313.5399916 0,0 0.0336255,-0.2426815 L0.0166104,-0.2995398 A0.3,0.3 273.1739753 0,1 0.2238332,-0.1997465z" transform="matrix(1,0,0,-1,0.3,0.3)" stroke="rgb(100,100,100)" stroke-width="0.0010cm" stroke-linecap="round" stroke-linejoin="round" fill="none" /><path d="M0.2957259,0.0504599 L0.2440794,0.0212192 A0.245,0.245 4.968563 0,0 0.2107012,-0.1250199 L0.2445461,-0.1737735 A0.3,0.3 324.6025467 0,1 0.2957259,0.0504599z" transform="matrix(1,0,0,-1,0.3,0.3)" stroke="rgb(100,100,100)" stroke-width="0.0010cm" stroke-linecap="round" stroke-linejoin="round" fill="none" /><path d="M0.1449309,0.2626691 L0.1355911,0.2040589 A0.245,0.245 56.3971344 0,0 0.2291146,0.0867842 L0.2883336,0.0828478 A0.3,0.3 16.0311181 0,1 0.1449309,0.2626691z" transform="matrix(1,0,0,-1,0.3,0.3)" stroke="rgb(100,100,100)" stroke-width="0.0010cm" stroke-linecap="round" stroke-linejoin="round" fill="none" /><path d="M0.05,0 L0,0 0,0.05" transform="matrix(1,0,0,-1,0.3,0.3)" stroke="rgb(37,107,246)" stroke-width="0.0010cm" stroke-linecap="round" stroke-linejoin="round" fill="none" /></svg>