<?xml version="1.0" encoding="utf-8"?>
<!-- Generator: Fusion 360, Shaper Origin Export Add-In, Version 1.7.0  -->
<svg xmlns="http://www.w3.org/2000/svg" xmlns:xlink="http://www.w3.org/1999/xlink" xmlns:shaper="http://www.shapertools.com/namespaces/shaper" shaper:fusionaddin="version:1.7.0" width="0.5945933cm" height="0.6047313cm" version="1.1" x="0cm" y="0cm" viewBox="0 0 0.5945933 0.6047313" enable-background="new 0 0 0.5945933 0.6047313" xml:space="preserve"><path d="M-0.04,0.3023657 A0.305,0.305 97.5359093 0,1 -0.0896588,0.2915241 L-0.05,0.2398437 A0.245,0.245 101.775744 0,0 0.05,0.2398437 L0.0896588,0.2915241 A0.305,0.305 72.9046204 0,1 0.04,0.3023657" transform="matrix(1,0,0,-1,0.2972967,0.3023657)" stroke="rgb(100,100,100)" stroke-width="0.0010cm" stroke-linecap="round" stroke-linejoin="round" fill="none" /><path d="M-0.2818564,0.1165418 A0.305,0.305 157.5359093 0,1 -0.2972967,0.0681153 L-0.2327107,0.0766206 A0.245,0.245 161.775744 0,0 -0.1827107,0.1632231 L-0.2076379,0.2234088 A0.305,0.305 132.9046204 0,1 -0.2418564,0.1858239" transform="matrix(1,0,0,-1,0.2972967,0.3023657)" stroke="rgb(100,100,100)" stroke-width="0.0010cm" stroke-linecap="round" stroke-linejoin="round" fill="none" /><path d="M-0.2418564,-0.1858239 A0.305,0.305 217.5359093 0,1 -0.2076379,-0.2234088 L-0.1827107,-0.1632231 A0.245,0.245 221.775744 0,0 -0.2327107,-0.0766206 L-0.2972967,-0.0681153 A0.305,0.305 192.9046204 0,1 -0.2818564,-0.1165418" transform="matrix(1,0,0,-1,0.2972967,0.3023657)" stroke="rgb(100,100,100)" stroke-width="0.0010cm" stroke-linecap="round" stroke-linejoin="round" fill="none" /><path d="M0.04,-0.3023657 A0.305,0.305 277.5359093 0,1 0.0896588,-0.2915241 L0.05,-0.2398437 A0.245,0.245 281.775744 0,0 -0.05,-0.2398437 L-0.0896588,-0.2915241 A0.305,0.305 252.9046204 0,1 -0.04,-0.3023657" transform="matrix(1,0,0,-1,0.2972967,0.3023657)" stroke="rgb(100,100,100)" stroke-width="0.0010cm" stroke-linecap="round" stroke-linejoin="round" fill="none" /><path d="M0.2818564,-0.1165418 A0.305,0.305 337.5359093 0,1 0.2972967,-0.0681153 L0.2327107,-0.0766206 A0.245,0.245 341.775744 0,0 0.1827107,-0.1632231 L0.2076379,-0.2234088 A0.305,0.305 312.9046204 0,1 0.2418564,-0.1858239" transform="matrix(1,0,0,-1,0.2972967,0.3023657)" stroke="rgb(100,100,100)" stroke-width="0.0010cm" stroke-linecap="round" stroke-linejoin="round" fill="none" /><path d="M0.2418564,0.1858239 A0.305,0.305 37.5359093 0,1 0.2076379,0.2234088 L0.1827107,0.1632231 A0.245,0.245 41.775744 0,0 0.2327107,0.0766206 L0.2972967,0.0681153 A0.305,0.305 12.9046204 0,1 0.2818564,0.1165418" transform="matrix(1,0,0,-1,0.2972967,0.3023657)" stroke="rgb(100,100,100)" stroke-width="0.0010cm" stroke-linecap="round" stroke-linejoin="round" fill="none" /><path d="M0.05,0 L0,0 0,0.05" transform="matrix(1,0,0,-1,0.2972967,0.3023657)" stroke="rgb(37,107,246)" stroke-width="0.0010cm" stroke-linecap="round" stroke-linejoin="round" fill="none" /></svg>